<?xml version="1.0" encoding="UTF-8" standalone="no"?>
<!-- Created with Inkscape (http://www.inkscape.org/) -->

<svg
   width="120"
   height="120"
   viewBox="0 0 120 120"
   version="1.1"
   id="svg5"
   inkscape:version="1.1.1 (3bf5ae0d25, 2021-09-20, custom)"
   sodipodi:docname="pencil.svg"
   xmlns:inkscape="http://www.inkscape.org/namespaces/inkscape"
   xmlns:sodipodi="http://sodipodi.sourceforge.net/DTD/sodipodi-0.dtd"
   xmlns:xlink="http://www.w3.org/1999/xlink"
   xmlns="http://www.w3.org/2000/svg"
   xmlns:svg="http://www.w3.org/2000/svg">
  <sodipodi:namedview
     id="namedview7"
     pagecolor="#505050"
     bordercolor="#eeeeee"
     borderopacity="1"
     inkscape:pageshadow="0"
     inkscape:pageopacity="0"
     inkscape:pagecheckerboard="0"
     inkscape:document-units="px"
     showgrid="true"
     inkscape:zoom="6.6295761"
     inkscape:cx="58.676451"
     inkscape:cy="58.073095"
     inkscape:window-width="1876"
     inkscape:window-height="1051"
     inkscape:window-x="0"
     inkscape:window-y="0"
     inkscape:window-maximized="1"
     inkscape:current-layer="layer1">
    <inkscape:grid
       type="xygrid"
       id="grid31" />
  </sodipodi:namedview>
  <defs
     id="defs2">
    <linearGradient
       inkscape:collect="always"
       id="linearGradient2973">
      <stop
         style="stop-color:#000000;stop-opacity:1"
         offset="0"
         id="stop2969" />
      <stop
         style="stop-color:#666666;stop-opacity:1"
         offset="1"
         id="stop2971" />
    </linearGradient>
    <linearGradient
       inkscape:collect="always"
       id="linearGradient2575">
      <stop
         style="stop-color:#502d16;stop-opacity:1"
         offset="0"
         id="stop2571" />
      <stop
         style="stop-color:#c87137;stop-opacity:1"
         offset="1"
         id="stop2573" />
    </linearGradient>
    <linearGradient
       inkscape:collect="always"
       id="linearGradient1807">
      <stop
         style="stop-color:#aa3a00;stop-opacity:1"
         offset="0"
         id="stop1803" />
      <stop
         style="stop-color:#ff7f2a;stop-opacity:1"
         offset="1"
         id="stop1805" />
    </linearGradient>
    <linearGradient
       inkscape:collect="always"
       id="linearGradient1515">
      <stop
         style="stop-color:#eeaaff;stop-opacity:1;"
         offset="0"
         id="stop1511" />
      <stop
         style="stop-color:#aa00d4;stop-opacity:1"
         offset="1"
         id="stop1513" />
    </linearGradient>
    <linearGradient
       inkscape:collect="always"
       xlink:href="#linearGradient1515"
       id="linearGradient1517"
       x1="110"
       y1="5"
       x2="75"
       y2="30"
       gradientUnits="userSpaceOnUse" />
    <linearGradient
       inkscape:collect="always"
       xlink:href="#linearGradient1807"
       id="linearGradient1809"
       x1="23.944879"
       y1="50.172041"
       x2="100"
       y2="20"
       gradientUnits="userSpaceOnUse" />
    <linearGradient
       inkscape:collect="always"
       xlink:href="#linearGradient2575"
       id="linearGradient2577"
       x1="14.190983"
       y1="85.303994"
       x2="50"
       y2="75"
       gradientUnits="userSpaceOnUse" />
    <linearGradient
       inkscape:collect="always"
       xlink:href="#linearGradient2973"
       id="linearGradient2975"
       x1="10"
       y1="100"
       x2="33.5"
       y2="96.519768"
       gradientUnits="userSpaceOnUse" />
  </defs>
  <g
     inkscape:label="Layer 1"
     inkscape:groupmode="layer"
     id="layer1">
    <path
       style="fill:url(#linearGradient2577);stroke:#000000;stroke-width:1px;stroke-linecap:butt;stroke-linejoin:miter;stroke-opacity:0.76993161;fill-opacity:1"
       d="M 25,70 15,90 h 5 l -2,3 5,-2 -1,4 5,-2 v 3 l 3,-1 v 3 l 3,-2 v 4 L 50,85 45,75 35,70 H 25"
       id="path938" />
    <path
       style="fill:url(#linearGradient2975);stroke:#000000;stroke-width:1px;stroke-linecap:butt;stroke-linejoin:miter;stroke-opacity:1;fill-opacity:1"
       d="m 15,90 -4,8 c 0,0 -6,-3 0,0 6,3 20,5 20,5 l 2,-3 v -4 l -3,2 v -3 l -3,1 v -3 l -5,2 1,-4 -5,2 2,-3 z"
       id="path940" />
    <path
       style="fill:url(#linearGradient1809);stroke:#4d2800;stroke-width:1px;stroke-linecap:butt;stroke-linejoin:miter;stroke-opacity:1;fill-opacity:1"
       d="M 50,85 100,35 95,25 80,15 H 70 L 25,70 h 10 l 10,5 z"
       id="path942" />
    <path
       style="fill:#4f4f4f;stroke:#000000;stroke-width:1px;stroke-linecap:butt;stroke-linejoin:miter;stroke-opacity:1;fill-opacity:1"
       d="m 70,15 5,-5 h 10 l 15,10 5,10 -5,5 L 95,25 80,15 H 70"
       id="path944" />
    <path
       style="fill:url(#linearGradient1517);stroke:#d44848;stroke-width:1px;stroke-linecap:butt;stroke-linejoin:miter;stroke-opacity:0.65831435;fill-opacity:1"
       d="m 75,10 c 0,0 0,-5 5,-5 5,0 20,0 25,10 5,10 0,15 0,15 L 100,20 85,10 Z"
       id="path948" />
  </g>
</svg>
