<?xml version="1.0" encoding="UTF-8" standalone="no"?>
<!-- Created with Inkscape (http://www.inkscape.org/) -->

<svg
   width="120"
   height="120"
   viewBox="0 0 120 120"
   version="1.1"
   id="svg5"
   inkscape:version="1.1.1 (3bf5ae0d25, 2021-09-20, custom)"
   sodipodi:docname="setThickness.svg"
   xmlns:inkscape="http://www.inkscape.org/namespaces/inkscape"
   xmlns:sodipodi="http://sodipodi.sourceforge.net/DTD/sodipodi-0.dtd"
   xmlns:xlink="http://www.w3.org/1999/xlink"
   xmlns="http://www.w3.org/2000/svg"
   xmlns:svg="http://www.w3.org/2000/svg">
  <sodipodi:namedview
     id="namedview7"
     pagecolor="#505050"
     bordercolor="#eeeeee"
     borderopacity="1"
     inkscape:pageshadow="0"
     inkscape:pageopacity="0"
     inkscape:pagecheckerboard="0"
     inkscape:document-units="px"
     showgrid="true"
     inkscape:zoom="7.3165769"
     inkscape:cx="66.151153"
     inkscape:cy="50.43342"
     inkscape:window-width="1876"
     inkscape:window-height="1051"
     inkscape:window-x="0"
     inkscape:window-y="0"
     inkscape:window-maximized="1"
     inkscape:current-layer="layer1">
    <inkscape:grid
       type="xygrid"
       id="grid31" />
  </sodipodi:namedview>
  <defs
     id="defs2">
    <linearGradient
       inkscape:collect="always"
       id="linearGradient2976">
      <stop
         style="stop-color:#f2f2f2;stop-opacity:1"
         offset="0"
         id="stop2972" />
      <stop
         style="stop-color:#000000;stop-opacity:1"
         offset="1"
         id="stop2974" />
    </linearGradient>
    <linearGradient
       inkscape:collect="always"
       id="linearGradient1190-3-2">
      <stop
         style="stop-color:#000000;stop-opacity:1"
         offset="0"
         id="stop1186" />
      <stop
         style="stop-color:#cccccc;stop-opacity:1"
         offset="1"
         id="stop1188" />
    </linearGradient>
    <linearGradient
       inkscape:collect="always"
       xlink:href="#linearGradient1190-3-2"
       id="linearGradient2549"
       gradientUnits="userSpaceOnUse"
       gradientTransform="matrix(1,0,0,1.4167055,3.2782069e-8,35.496935)"
       x1="5"
       y1="30"
       x2="95"
       y2="25" />
    <linearGradient
       inkscape:collect="always"
       xlink:href="#linearGradient1190-3-2"
       id="linearGradient2551"
       gradientUnits="userSpaceOnUse"
       gradientTransform="matrix(1,0,0,1.4167055,3.2782069e-8,35.496935)"
       x1="95"
       y1="25"
       x2="20"
       y2="15" />
    <linearGradient
       inkscape:collect="always"
       xlink:href="#linearGradient2976"
       id="linearGradient2793"
       x1="10"
       y1="115"
       x2="109.06954"
       y2="109.31549"
       gradientUnits="userSpaceOnUse"
       gradientTransform="translate(-2,-6)" />
    <linearGradient
       inkscape:collect="always"
       xlink:href="#linearGradient1190-3-2"
       id="linearGradient2801"
       x1="10"
       y1="115"
       x2="109.06954"
       y2="109.31549"
       gradientUnits="userSpaceOnUse"
       gradientTransform="translate(-2,-6)" />
    <linearGradient
       inkscape:collect="always"
       xlink:href="#linearGradient1190-3-2"
       id="linearGradient3547"
       x1="0.095010176"
       y1="27.58672"
       x2="117.06878"
       y2="27.58672"
       gradientUnits="userSpaceOnUse"
       gradientTransform="translate(2)" />
    <linearGradient
       inkscape:collect="always"
       xlink:href="#linearGradient2976"
       id="linearGradient3573"
       x1="0.095010176"
       y1="27.58672"
       x2="117.06878"
       y2="27.58672"
       gradientUnits="userSpaceOnUse"
       gradientTransform="translate(2)" />
  </defs>
  <g
     inkscape:label="Layer 1"
     inkscape:groupmode="layer"
     id="layer1">
    <path
       style="fill:url(#linearGradient2549);fill-opacity:1;fill-rule:nonzero;stroke:url(#linearGradient2551);stroke-width:1.19025;stroke-linecap:round;stroke-linejoin:round;stroke-opacity:1;paint-order:stroke markers fill"
       id="path960-5"
       d="m 19.903341,64.223189 c 0.150817,-0.267662 0.274527,-0.571127 0.452449,-0.802987 0.35161,-0.4582 1.53799,-1.599269 1.126717,-1.254895 -2.695642,2.257158 -5.606593,4.122142 -7.988986,7.000919 -0.891726,1.077523 2.22071,-1.09605 3.370244,-1.419839 3.256268,-0.917193 4.279495,-0.578809 7.534292,-0.371765 2.887335,0.731048 3.650211,0.729886 6.378144,2.168199 0.866037,0.456621 1.680853,1.088705 2.526286,1.617172 0.841066,0.525736 1.675282,1.076716 2.533012,1.545311 3.194557,1.745249 3.558221,1.659571 7.233917,2.910803 0.369886,0.126186 9.140838,3.120267 9.582103,3.263968 1.404136,0.457268 2.804667,0.94565 4.222679,1.306886 1.246624,0.317576 2.499677,0.645342 3.764952,0.72795 2.604166,0.170021 4.66179,-0.403559 7.20377,-0.914911 1.911261,-0.564637 3.361875,-0.909806 5.198972,-1.745765 0.755702,-0.343878 1.494873,-0.75866 2.230549,-1.180793 1.890428,-1.084735 3.701796,-2.420534 5.519464,-3.723888 2.463422,-1.888497 4.988928,-3.626022 7.736646,-4.510205 1.986245,-0.63915 2.512246,-0.581986 4.524352,-0.780102 2.318942,-0.134828 4.617957,0.298009 6.86065,1.114675 0.575167,0.209444 1.136177,0.490355 1.704267,0.735534 0,0 10.61375,-10.398763 10.61375,-10.398763 v 0 c -3.02746,-0.772369 -6.05774,-1.578008 -9.12982,-1.904792 -2.00453,0.09119 -2.6429,0.0323 -4.625094,0.471543 -2.715243,0.601683 -5.313181,1.911568 -7.679242,3.8932 -1.951,1.482852 -3.892827,3.020785 -5.896298,4.358943 -2.657378,1.774915 -5.418008,3.216417 -8.26142,4.27203 -3.094902,0.947853 -4.218703,1.492609 -7.436177,1.644674 -4.469546,0.21124 -9.035608,-0.810849 -13.296117,-2.694458 -1.418164,-0.626982 -2.776969,-1.49706 -4.165454,-2.245591 -1.105953,-0.768862 -2.199554,-1.574458 -3.317858,-2.306586 -2.694462,-1.764002 -5.498262,-3.256005 -8.337667,-4.476709 -1.097885,-0.471998 -2.191039,-0.983627 -3.313722,-1.318689 -1.18693,-0.354236 -2.400505,-0.496612 -3.600757,-0.744919 -2.326354,-0.255023 -4.982355,-0.681512 -7.328812,-0.417933 -6.302684,0.707987 -10.39547,6.138089 -16.3152572,10.852956 -0.7169688,0.571036 -1.3513271,1.3309 -2.0006609,2.046129 -0.3730934,0.410957 -0.7088256,0.885802 -1.0632384,1.328703 0,0 13.4393655,-8.046005 13.4393655,-8.046005 z" />
    <path
       style="fill:url(#linearGradient2801);fill-opacity:1;fill-rule:nonzero;stroke:url(#linearGradient2793);stroke-linecap:round;stroke-linejoin:round;stroke-opacity:1;paint-order:stroke markers fill"
       id="path2705"
       d="m 16.45886,101.63994 c 0.223021,-0.21687 0.162972,-0.17452 0.508519,-0.39683 0.190026,-0.12226 0.774082,-0.46651 0.578694,-0.35302 -1.618536,0.94012 -3.255331,1.85009 -4.848259,2.83297 -0.3579,0.22084 0.753472,-0.37447 1.138393,-0.54387 0.419952,-0.18482 0.850104,-0.34553 1.275156,-0.51829 2.519601,-0.91178 5.147426,-1.50142 7.809159,-1.80349 0.74509,-0.0846 1.494293,-0.12777 2.241439,-0.19165 0.779401,-0.0335 1.558416,-0.0777 2.338201,-0.1006 0.916757,-0.0269 1.833901,-0.0562 2.751023,-0.0488 2.052186,0.0165 3.394804,0.12854 5.429775,0.28532 2.560284,0.19724 3.310059,0.27432 5.940665,0.51206 3.643464,0.30864 7.21882,1.10892 10.741875,2.05937 1.172269,0.31626 2.330604,0.68211 3.497637,1.01717 5.903395,1.69489 1.451225,0.36772 7.158778,2.09853 3.180846,1.02336 6.313694,2.27584 9.644295,2.7393 1.461453,0.20336 2.184926,0.1721 3.639922,0.19542 1.522045,0.007 3.044296,-0.18374 4.520039,-0.55757 1.499575,-0.37986 2.955459,-0.93457 4.40484,-1.46751 1.925107,-0.7417 3.846229,-1.49584 5.809579,-2.13211 0.497559,-0.16125 2.325335,-0.71548 2.843935,-0.8734 2.03499,-0.58027 4.058322,-1.20174 6.093355,-1.78173 0.82978,-0.22997 0.43498,-0.12467 1.1838,-0.31811 0,0 5.60475,-4.31712 5.60475,-4.31712 v 0 c -0.85737,0.26853 -0.41037,0.12704 -1.34076,0.42521 -2.17162,0.70184 -4.333,1.43534 -6.51536,2.1038 -0.978899,0.30986 -1.95647,0.6239 -2.935443,0.93351 -1.172887,0.37095 -1.80758,0.54758 -2.954786,0.96811 -0.467248,0.17127 -0.92687,0.36268 -1.39048,0.54358 -0.47469,0.18522 -0.949612,0.36985 -1.424418,0.55477 -2.896434,1.10297 -5.839122,2.16891 -8.967533,2.32807 -1.689816,0.0595 -2.054956,0.11096 -3.776314,0.009 -3.619955,-0.21526 -7.154488,-1.06734 -10.662647,-1.93635 -1.187267,-0.33265 -2.378947,-0.64992 -3.5618,-0.99793 -1.201629,-0.35354 -2.390221,-0.75032 -3.591054,-1.10655 -0.908803,-0.2696 -6.159232,-1.75626 -7.078219,-1.98226 -1.155378,-0.28413 -2.324346,-0.50999 -3.488782,-0.75436 -1.107728,-0.23247 -2.218385,-0.45075 -3.327578,-0.67613 -0.986191,-0.14456 -1.969617,-0.30943 -2.958572,-0.43369 -2.184914,-0.27452 -3.253293,-0.32259 -5.443813,-0.45458 -0.277052,-0.0167 -4.884211,-0.28021 -5.257578,-0.28844 -0.756799,-0.0167 -1.513852,0.0187 -2.270778,0.028 -1.059315,0.0362 -2.907906,0.0822 -3.996025,0.18203 -1.921995,0.17626 -3.790897,0.63275 -5.616685,1.24755 -0.433753,0.15309 -1.877833,0.64003 -2.314361,0.87881 -2.285513,1.25019 -4.541883,2.55337 -6.792495,3.86535 -0.429481,0.25036 -0.868219,0.59457 -1.179809,0.99117 -0.08876,0.11297 -0.140801,0.25047 -0.211201,0.37571 0,0 6.750921,-3.14004 6.750921,-3.14004 z" />
    <path
       style="fill:url(#linearGradient3547);fill-opacity:1;fill-rule:nonzero;stroke:url(#linearGradient3573);stroke-linecap:round;stroke-linejoin:round;stroke-opacity:1;paint-order:stroke markers fill"
       id="path3459"
       d="m 29.491815,17.917468 c -0.04421,-0.03836 -0.112264,-0.0602 -0.13262,-0.115078 -0.0662,-0.178457 0.12366,-0.513437 0.180193,-0.614121 0.407944,-0.726531 1.071616,-1.256538 1.679137,-1.803155 0.765589,-0.550804 1.456196,-1.200992 2.221291,-1.752439 0.46395,-0.334394 0.942201,-0.649114 1.426743,-0.952903 0.488836,-0.306482 1.99115,-1.166855 1.492186,-0.877155 -19.117974,11.099931 -24.751171,13.400388 -15.854789,9.584283 2.487924,-0.697345 5.078764,-1.188835 7.679108,-1.050383 0.907756,0.04833 1.809992,0.205825 2.696763,0.405812 0.78272,0.176521 1.530306,0.483151 2.296821,0.720355 0.81169,0.251184 1.625174,0.496533 2.437762,0.744799 3.235863,1.439728 1.040375,0.378088 3.978805,2.002124 0.654137,0.361534 1.344718,0.659497 1.976144,1.059376 0.602019,0.381256 1.139968,0.855376 1.714011,1.277583 0.623042,0.458245 1.293246,0.856579 1.877175,1.363725 0.575047,0.49943 1.057627,1.096293 1.58644,1.64444 0.235176,0.327986 2.362188,3.284253 2.569414,3.614276 0.390893,0.622529 0.679589,1.305437 1.070231,1.928123 0.417882,0.666109 0.899159,1.290287 1.352087,1.933078 0.470837,0.668207 0.85616,1.407291 1.419193,1.999896 0.671573,0.706846 1.502071,1.243523 2.253107,1.865284 2.071877,1.703035 2.296404,2.082962 4.762925,3.294547 0.94279,0.46311 1.942923,0.798967 2.914602,1.197922 0.876197,0.359751 1.7309,0.777341 2.629025,1.078196 2.217125,0.742694 3.287947,0.816173 5.574948,1.178401 1.709394,0.249313 2.862789,0.535817 4.599395,0.325211 0.835957,-0.10138 1.656307,-0.320366 2.462828,-0.562494 0.746277,-0.224042 1.506405,-0.44833 2.184233,-0.832613 20.578567,-11.666698 15.182696,-7.131184 23.089987,-14.091435 1.15419,-1.232941 2.20082,-2.561508 3.33943,-3.808084 2.45379,-2.68649 1.42958,-1.322209 3.66827,-4.024308 0.45974,-0.5549 2.61509,-3.326044 3.07384,-3.914069 1.59115,-1.964932 3.25606,-3.866089 4.99548,-5.700305 0,0 -24.647384,10.807357 -24.647384,10.807357 v 0 c -0.04464,0.223101 -0.07754,0.448874 -0.133911,0.669303 -0.303398,1.186382 -0.78859,2.315795 -1.36467,3.393852 -0.353664,0.551893 -0.686775,1.11751 -1.060991,1.65568 -0.858574,1.234739 -1.822763,2.401845 -2.770359,3.567317 -0.483,0.594053 -0.937981,1.212652 -1.455844,1.776572 -1.659728,1.80734 -2.347766,2.278477 -4.236348,3.863577 -7.133205,5.367651 -2.755481,1.943493 15.118437,-8.21186 0.70239,-0.39907 -1.38696,0.833696 -2.116658,1.180306 -0.703193,0.33402 -1.426382,0.635 -2.172527,0.857076 -2.031898,0.604759 -3.172929,0.594831 -5.298129,0.786528 -0.915671,-0.05711 -1.836828,-0.0561 -2.747012,-0.171344 C 84.486907,35.04186 81.621125,34.396759 80.37797,33.916545 79.542942,33.593985 78.753289,33.15865 77.979509,32.70856 76.090497,31.609767 75.553351,31.036634 73.896221,29.64224 73.148976,28.564114 71.92559,26.846739 71.261788,25.702634 70.866489,25.021311 70.572066,24.284299 70.170839,23.606451 69.776663,22.940514 69.308011,22.321567 68.879197,21.677389 67.06724,18.955413 68.124095,20.311534 65.943952,17.872545 65.661804,17.565024 62.898696,14.532167 62.565984,14.253931 61.953754,13.741944 61.233849,13.374486 60.561434,12.944585 59.878995,12.508274 59.231698,12.006227 58.501612,11.65542 58.02897,11.428315 54.041522,10.118146 53.60402,9.9724138 49.932917,8.7391871 52.21673,9.3912222 48.312936,8.5608311 47.403353,8.3673502 46.493173,8.1754194 45.589411,7.9563503 44.762194,7.7558352 43.961127,7.4394268 43.121067,7.3023372 40.884478,6.9373481 40.51156,7.1936467 38.317162,7.5814399 27.933437,9.5909897 36.536573,7.6998167 14.03601,20.434374 c -1.244677,0.704445 -2.222388,1.42488 -3.381051,2.244297 -0.57474,0.406461 -1.160149,0.798434 -1.721766,1.222842 -0.441902,0.33394 -0.858079,0.700625 -1.2871179,1.050937 -1.2892371,1.090995 -2.5656335,2.164779 -3.6512715,3.46735 -0.3915521,0.469792 -0.7462875,1.055279 -1.107819,1.550201 -0.1269233,0.173752 -0.2658772,0.338389 -0.3988158,0.507583 0,0 27.0036462,-12.560116 27.0036462,-12.560116 z" />
  </g>
</svg>
