<?xml version="1.0" encoding="UTF-8"?>
<svg xmlns="http://www.w3.org/2000/svg" xmlns:xlink="http://www.w3.org/1999/xlink" width="48pt" height="48pt" viewBox="0 0 48 48" version="1.2">
<g id="surface52251">
<path style="fill-rule:nonzero;fill:rgb(0%,0%,0%);fill-opacity:1;stroke-width:0.85;stroke-linecap:round;stroke-linejoin:round;stroke:rgb(0%,0%,0%);stroke-opacity:1;comp-op:src;clip-to-self:true;stroke-dasharray:6,3;stroke-miterlimit:10;" d="M 2.664062 23.910156 L 2.722656 22.296875 L 2.902344 20.691406 L 3.195312 19.109375 L 3.601562 17.550781 L 4.121094 16.027344 L 4.753906 14.546875 L 5.488281 13.121094 L 6.328125 11.753906 L 7.261719 10.457031 L 8.292969 9.234375 L 9.40625 8.09375 L 10.601562 7.039062 L 11.867188 6.082031 L 13.203125 5.222656 L 14.597656 4.46875 L 16.042969 3.824219 L 17.527344 3.292969 L 19.050781 2.875 L 20.601562 2.574219 L 22.167969 2.394531 L 23.742188 2.332031 L 25.316406 2.394531 L 26.882812 2.574219 L 28.433594 2.875 L 29.953125 3.292969 L 31.441406 3.824219 L 32.886719 4.46875 L 34.28125 5.222656 L 35.613281 6.082031 L 36.882812 7.039062 L 38.078125 8.09375 L 39.191406 9.234375 L 40.21875 10.457031 L 41.15625 11.753906 L 41.996094 13.121094 L 42.730469 14.546875 L 43.359375 16.027344 L 43.882812 17.550781 L 44.289062 19.109375 L 44.582031 20.691406 L 44.757812 22.296875 L 44.816406 23.910156 L 44.757812 25.519531 L 44.582031 27.125 L 44.289062 28.710938 L 43.882812 30.269531 L 43.359375 31.792969 L 42.730469 33.269531 L 41.996094 34.695312 L 41.15625 36.0625 L 40.21875 37.363281 L 39.191406 38.585938 L 38.078125 39.726562 L 36.882812 40.777344 L 35.613281 41.734375 L 34.28125 42.59375 L 32.886719 43.347656 L 31.441406 43.992188 L 29.953125 44.527344 L 28.433594 44.945312 L 26.882812 45.246094 L 25.316406 45.425781 L 23.742188 45.484375 L 22.167969 45.425781 L 20.601562 45.246094 L 19.050781 44.945312 L 17.527344 44.527344 L 16.042969 43.992188 L 14.597656 43.347656 L 13.203125 42.59375 L 11.867188 41.734375 L 10.601562 40.777344 L 9.40625 39.726562 L 8.292969 38.585938 L 7.261719 37.363281 L 6.328125 36.0625 L 5.488281 34.695312 L 4.753906 33.269531 L 4.121094 31.792969 L 3.601562 30.269531 L 3.195312 28.710938 L 2.902344 27.125 L 2.722656 25.519531 L 2.664062 23.910156 "/>
<path style="fill-rule:nonzero;fill:rgb(20.392157%,0%,25.490196%);fill-opacity:1;stroke-width:0.803456;stroke-linecap:round;stroke-linejoin:round;stroke:rgb(20.392157%,0%,25.490196%);stroke-opacity:1;comp-op:src;clip-to-self:true;stroke-dasharray:6,3;stroke-miterlimit:10;" d="M 3.945312 24.007812 L 4 22.484375 L 4.167969 20.96875 L 4.445312 19.46875 L 4.832031 17.996094 L 5.324219 16.558594 L 5.917969 15.160156 L 6.617188 13.8125 L 7.40625 12.519531 L 8.292969 11.292969 L 9.265625 10.136719 L 10.316406 9.058594 L 11.445312 8.0625 L 12.644531 7.15625 L 13.90625 6.347656 L 15.222656 5.632812 L 16.589844 5.023438 L 17.996094 4.519531 L 19.433594 4.125 L 20.898438 3.839844 L 22.378906 3.671875 L 23.867188 3.613281 L 25.355469 3.671875 L 26.839844 3.839844 L 28.300781 4.125 L 29.742188 4.519531 L 31.148438 5.023438 L 32.511719 5.632812 L 33.828125 6.347656 L 35.089844 7.15625 L 36.289062 8.0625 L 37.417969 9.058594 L 38.472656 10.136719 L 39.445312 11.292969 L 40.328125 12.519531 L 41.121094 13.8125 L 41.816406 15.160156 L 42.414062 16.558594 L 42.90625 17.996094 L 43.292969 19.46875 L 43.570312 20.96875 L 43.734375 22.484375 L 43.792969 24.007812 L 43.734375 25.53125 L 43.570312 27.046875 L 43.292969 28.546875 L 42.90625 30.019531 L 42.414062 31.460938 L 41.816406 32.859375 L 41.121094 34.207031 L 40.328125 35.496094 L 39.445312 36.722656 L 38.472656 37.878906 L 37.417969 38.960938 L 36.289062 39.953125 L 35.089844 40.859375 L 33.828125 41.671875 L 32.511719 42.382812 L 31.148438 42.992188 L 29.742188 43.496094 L 28.300781 43.890625 L 26.839844 44.175781 L 25.355469 44.347656 L 23.867188 44.402344 L 22.378906 44.347656 L 20.898438 44.175781 L 19.433594 43.890625 L 17.996094 43.496094 L 16.589844 42.992188 L 15.222656 42.382812 L 13.90625 41.671875 L 12.644531 40.859375 L 11.445312 39.953125 L 10.316406 38.960938 L 9.265625 37.878906 L 8.292969 36.722656 L 7.40625 35.496094 L 6.617188 34.207031 L 5.917969 32.859375 L 5.324219 31.460938 L 4.832031 30.019531 L 4.445312 28.546875 L 4.167969 27.046875 L 4 25.53125 L 3.945312 24.007812 "/>
<path style="fill-rule:nonzero;fill:rgb(100%,100%,0%);fill-opacity:1;stroke-width:0.85;stroke-linecap:round;stroke-linejoin:round;stroke:rgb(100%,100%,0%);stroke-opacity:1;comp-op:src;clip-to-self:true;stroke-miterlimit:10;" d="M 26.824219 5.914062 L 36.320312 12.414062 L 24.992188 29.15625 L 19.742188 25.992188 L 26.824219 5.914062 "/>
<path style="fill-rule:nonzero;fill:rgb(100%,100%,0%);fill-opacity:1;stroke-width:0.85;stroke-linecap:round;stroke-linejoin:round;stroke:rgb(100%,100%,0%);stroke-opacity:1;comp-op:src;clip-to-self:true;stroke-miterlimit:10;" d="M 18.910156 28.824219 L 18.578125 33.90625 L 23.660156 31.15625 L 18.910156 28.824219 "/>
<path style="fill-rule:nonzero;fill:rgb(50.196078%,50.196078%,50.196078%);fill-opacity:1;stroke-width:0.85;stroke-linecap:round;stroke-linejoin:round;stroke:rgb(50.196078%,50.196078%,50.196078%);stroke-opacity:1;comp-op:src;clip-to-self:true;stroke-miterlimit:10;" d="M 18.828125 28.742188 L 18.410156 33.824219 L 23.574219 30.738281 L 18.828125 28.742188 "/>
<path style="fill-rule:nonzero;fill:rgb(100%,50.196078%,0%);fill-opacity:1;stroke-width:0.85;stroke-linecap:round;stroke-linejoin:round;stroke:rgb(100%,50.196078%,0%);stroke-opacity:1;comp-op:src;clip-to-self:true;stroke-miterlimit:10;" d="M 26.742188 5.832031 L 35.988281 12.578125 L 24.660156 29.15625 L 21.828125 27.65625 L 30.574219 9.332031 L 26.742188 5.832031 "/>
<path style="fill-rule:nonzero;fill:rgb(100%,0%,100%);fill-opacity:1;stroke-width:0.85;stroke-linecap:round;stroke-linejoin:round;stroke:rgb(100%,0%,100%);stroke-opacity:1;comp-op:src;clip-to-self:true;stroke-miterlimit:10;" d="M 26.492188 5.914062 L 25.160156 8.996094 L 34.65625 14.496094 L 36.820312 12.164062 L 26.492188 5.914062 "/>
<path style="fill-rule:nonzero;fill:rgb(50.196078%,50.196078%,50.196078%);fill-opacity:1;stroke-width:0.85;stroke-linecap:round;stroke-linejoin:round;stroke:rgb(50.196078%,50.196078%,50.196078%);stroke-opacity:1;comp-op:src;clip-to-self:true;stroke-miterlimit:10;" d="M 24.742188 9.582031 L 34.90625 15.410156 L 33.65625 16.996094 L 23.992188 11.664062 L 24.742188 9.582031 "/>
</g>
</svg>
